<svg xmlns="http://www.w3.org/2000/svg" viewBox="0 0 96 96" role="img" aria-labelledby="title desc">
  <title id="title">Geodude avatar</title>
  <desc id="desc">A compact rock creature avatar inspired by Geodude.</desc>
  <defs>
    <linearGradient id="rock" x1="28" x2="72" y1="18" y2="84" gradientUnits="userSpaceOnUse">
      <stop offset="0" stop-color="#c3c7cf"/>
      <stop offset=".58" stop-color="#8f98a5"/>
      <stop offset="1" stop-color="#5f6874"/>
    </linearGradient>
    <linearGradient id="arm" x1="12" x2="84" y1="30" y2="78" gradientUnits="userSpaceOnUse">
      <stop offset="0" stop-color="#aeb6c2"/>
      <stop offset="1" stop-color="#687381"/>
    </linearGradient>
  </defs>
  <circle cx="48" cy="48" r="46" fill="#eef2f8"/>
  <path d="M16 49c-6 2-9 8-7 14 2 5 7 8 13 6l16-6-6-18-16 4Z" fill="url(#arm)"/>
  <path d="M80 49c6 2 9 8 7 14-2 5-7 8-13 6l-16-6 6-18 16 4Z" fill="url(#arm)"/>
  <path d="M30 43 21 38l-6 9 8 8Z" fill="#7d8794"/>
  <path d="M66 43 75 38l6 9-8 8Z" fill="#7d8794"/>
  <path d="M21 64c-4 1-8-1-9-5-.6-2 0-4 2-6l9 4Z" fill="#d9dde4"/>
  <path d="M75 64c4 1 8-1 9-5 .6-2 0-4-2-6l-9 4Z" fill="#d9dde4"/>
  <path d="M48 18c19 0 34 14 34 33 0 17-14 31-34 31S14 68 14 51c0-19 15-33 34-33Z" fill="url(#rock)" stroke="#4d5663" stroke-width="3"/>
  <path d="M22 49 35 28l13-7 15 8 12 20-5 19-22 12-21-12Z" fill="none" stroke="#717b88" stroke-linecap="round" stroke-linejoin="round" stroke-width="3" opacity=".55"/>
  <path d="M31 45c4-3 10-3 14 0" fill="none" stroke="#29313a" stroke-linecap="round" stroke-width="4"/>
  <path d="M51 45c4-3 10-3 14 0" fill="none" stroke="#29313a" stroke-linecap="round" stroke-width="4"/>
  <circle cx="38" cy="52" r="4" fill="#151a20"/>
  <circle cx="58" cy="52" r="4" fill="#151a20"/>
  <path d="M37 65c6 5 16 5 22 0" fill="none" stroke="#242b33" stroke-linecap="round" stroke-width="4"/>
  <path d="M28 35 39 29M57 29l12 7M23 59l14 7M59 66l15-7" fill="none" stroke="#e3e6eb" stroke-linecap="round" stroke-width="2" opacity=".45"/>
</svg>
